<?xml version="1.0" encoding="UTF-8"?>
<svg xmlns="http://www.w3.org/2000/svg" version="1.1" width="200" height="200" viewBox="0 0 200 200"><rect x="0" y="0" width="200" height="200" fill="#ffffff"/><g transform="scale(6.897)"><g transform="translate(0,0)"><path fill-rule="evenodd" d="M8 0L8 2L9 2L9 3L10 3L10 2L9 2L9 1L11 1L11 0ZM13 0L13 1L12 1L12 3L13 3L13 4L14 4L14 10L15 10L15 11L16 11L16 10L18 10L18 9L16 9L16 8L17 8L17 6L16 6L16 8L15 8L15 4L16 4L16 2L15 2L15 0ZM17 0L17 4L18 4L18 7L19 7L19 4L20 4L20 5L21 5L21 4L20 4L20 3L19 3L19 2L18 2L18 1L19 1L19 0ZM13 1L13 2L14 2L14 4L15 4L15 2L14 2L14 1ZM20 1L20 2L21 2L21 1ZM8 4L8 9L7 9L7 8L5 8L5 9L3 9L3 8L0 8L0 9L1 9L1 10L0 10L0 13L1 13L1 12L2 12L2 13L3 13L3 17L2 17L2 15L0 15L0 16L1 16L1 17L2 17L2 18L0 18L0 19L3 19L3 18L5 18L5 17L4 17L4 15L5 15L5 16L6 16L6 17L7 17L7 18L6 18L6 19L8 19L8 20L5 20L5 19L4 19L4 20L0 20L0 21L8 21L8 22L9 22L9 23L8 23L8 24L9 24L9 26L8 26L8 29L9 29L9 28L10 28L10 29L12 29L12 28L10 28L10 27L9 27L9 26L11 26L11 27L12 27L12 26L13 26L13 23L14 23L14 26L15 26L15 27L14 27L14 29L15 29L15 28L16 28L16 29L17 29L17 27L18 27L18 25L17 25L17 23L16 23L16 21L17 21L17 19L16 19L16 18L18 18L18 17L19 17L19 19L18 19L18 20L19 20L19 19L21 19L21 18L20 18L20 16L19 16L19 15L23 15L23 16L21 16L21 17L22 17L22 18L23 18L23 17L24 17L24 16L25 16L25 18L28 18L28 19L29 19L29 16L28 16L28 17L26 17L26 16L25 16L25 15L26 15L26 14L28 14L28 15L29 15L29 12L28 12L28 13L26 13L26 14L25 14L25 15L24 15L24 14L23 14L23 11L27 11L27 10L28 10L28 11L29 11L29 8L27 8L27 10L23 10L23 9L25 9L25 8L21 8L21 9L22 9L22 10L23 10L23 11L22 11L22 12L21 12L21 14L20 14L20 12L19 12L19 11L21 11L21 10L20 10L20 8L19 8L19 11L18 11L18 12L19 12L19 15L18 15L18 17L16 17L16 16L17 16L17 12L16 12L16 13L15 13L15 12L14 12L14 14L15 14L15 15L14 15L14 16L15 16L15 19L14 19L14 18L13 18L13 19L12 19L12 16L11 16L11 17L10 17L10 15L12 15L12 12L13 12L13 8L12 8L12 7L13 7L13 5L12 5L12 7L11 7L11 4L10 4L10 5L9 5L9 4ZM9 6L9 7L10 7L10 9L8 9L8 11L9 11L9 12L10 12L10 11L9 11L9 10L11 10L11 7L10 7L10 6ZM20 6L20 7L21 7L21 6ZM5 9L5 10L7 10L7 9ZM1 10L1 11L3 11L3 10ZM4 11L4 12L3 12L3 13L6 13L6 14L5 14L5 15L6 15L6 16L7 16L7 15L9 15L9 14L7 14L7 13L8 13L8 12L7 12L7 11L6 11L6 12L5 12L5 11ZM11 11L11 12L12 12L12 11ZM6 12L6 13L7 13L7 12ZM6 14L6 15L7 15L7 14ZM15 15L15 16L16 16L16 15ZM8 16L8 19L9 19L9 20L8 20L8 21L9 21L9 22L10 22L10 25L11 25L11 24L12 24L12 23L13 23L13 22L15 22L15 21L16 21L16 19L15 19L15 20L14 20L14 19L13 19L13 20L12 20L12 23L11 23L11 22L10 22L10 21L11 21L11 19L10 19L10 18L9 18L9 16ZM22 19L22 20L20 20L20 21L19 21L19 22L18 22L18 23L19 23L19 22L20 22L20 24L19 24L19 25L20 25L20 26L19 26L19 29L21 29L21 27L20 27L20 26L21 26L21 25L23 25L23 27L24 27L24 28L22 28L22 29L25 29L25 22L27 22L27 21L28 21L28 23L27 23L27 26L26 26L26 27L29 27L29 21L28 21L28 20L27 20L27 21L26 21L26 20L24 20L24 19ZM21 21L21 24L24 24L24 21ZM22 22L22 23L23 23L23 22ZM16 26L16 27L17 27L17 26ZM28 28L28 29L29 29L29 28ZM0 0L0 7L7 7L7 0ZM1 1L1 6L6 6L6 1ZM2 2L2 5L5 5L5 2ZM22 0L22 7L29 7L29 0ZM23 1L23 6L28 6L28 1ZM24 2L24 5L27 5L27 2ZM0 22L0 29L7 29L7 22ZM1 23L1 28L6 28L6 23ZM2 24L2 27L5 27L5 24Z" fill="#000000"/></g></g></svg>
