<?xml version="1.0" encoding="UTF-8"?>
<svg xmlns="http://www.w3.org/2000/svg" version="1.1" width="200" height="200" viewBox="0 0 200 200"><rect x="0" y="0" width="200" height="200" fill="#ffffff"/><g transform="scale(5.405)"><g transform="translate(0,0)"><path fill-rule="evenodd" d="M9 0L9 1L8 1L8 2L9 2L9 3L8 3L8 4L10 4L10 7L11 7L11 4L12 4L12 5L13 5L13 6L12 6L12 7L13 7L13 6L14 6L14 8L13 8L13 9L11 9L11 8L6 8L6 9L5 9L5 8L0 8L0 12L2 12L2 13L3 13L3 14L2 14L2 15L1 15L1 14L0 14L0 15L1 15L1 18L0 18L0 19L1 19L1 21L0 21L0 22L2 22L2 24L1 24L1 23L0 23L0 29L1 29L1 26L2 26L2 27L3 27L3 28L2 28L2 29L3 29L3 28L4 28L4 29L5 29L5 27L7 27L7 28L6 28L6 29L8 29L8 31L9 31L9 32L8 32L8 37L11 37L11 36L12 36L12 37L16 37L16 36L17 36L17 37L18 37L18 36L17 36L17 35L18 35L18 34L20 34L20 35L19 35L19 36L20 36L20 37L21 37L21 36L22 36L22 37L23 37L23 36L25 36L25 37L27 37L27 36L30 36L30 37L37 37L37 34L35 34L35 35L36 35L36 36L34 36L34 33L37 33L37 32L36 32L36 31L37 31L37 30L35 30L35 28L34 28L34 27L36 27L36 28L37 28L37 26L36 26L36 25L37 25L37 22L36 22L36 21L37 21L37 18L36 18L36 17L37 17L37 14L36 14L36 13L35 13L35 12L34 12L34 11L35 11L35 9L36 9L36 8L35 8L35 9L34 9L34 8L33 8L33 9L34 9L34 11L32 11L32 12L31 12L31 10L30 10L30 8L29 8L29 4L28 4L28 5L26 5L26 8L24 8L24 7L25 7L25 5L24 5L24 4L27 4L27 3L28 3L28 2L29 2L29 0L28 0L28 1L26 1L26 0L23 0L23 1L21 1L21 2L19 2L19 4L18 4L18 3L17 3L17 1L20 1L20 0L16 0L16 1L14 1L14 0L13 0L13 1L11 1L11 2L10 2L10 0ZM23 1L23 2L24 2L24 3L23 3L23 4L24 4L24 3L27 3L27 2L25 2L25 1ZM12 2L12 3L15 3L15 2ZM10 3L10 4L11 4L11 3ZM16 3L16 4L13 4L13 5L14 5L14 6L15 6L15 7L16 7L16 8L15 8L15 9L13 9L13 10L11 10L11 9L10 9L10 11L11 11L11 13L12 13L12 14L10 14L10 13L9 13L9 12L8 12L8 10L9 10L9 9L6 9L6 10L4 10L4 11L2 11L2 9L1 9L1 11L2 11L2 12L4 12L4 11L5 11L5 12L8 12L8 13L9 13L9 14L10 14L10 15L11 15L11 16L9 16L9 15L8 15L8 16L7 16L7 15L6 15L6 14L7 14L7 13L4 13L4 14L3 14L3 15L2 15L2 16L5 16L5 17L3 17L3 19L4 19L4 20L3 20L3 21L4 21L4 22L3 22L3 24L2 24L2 25L3 25L3 24L5 24L5 23L4 23L4 22L5 22L5 21L6 21L6 22L7 22L7 23L6 23L6 24L7 24L7 25L5 25L5 26L3 26L3 27L5 27L5 26L7 26L7 27L8 27L8 26L7 26L7 25L8 25L8 24L9 24L9 27L13 27L13 28L14 28L14 29L12 29L12 28L10 28L10 29L9 29L9 28L8 28L8 29L9 29L9 30L10 30L10 33L13 33L13 36L14 36L14 33L15 33L15 34L16 34L16 35L15 35L15 36L16 36L16 35L17 35L17 32L18 32L18 33L19 33L19 32L20 32L20 34L21 34L21 33L22 33L22 34L23 34L23 35L25 35L25 36L27 36L27 35L28 35L28 33L26 33L26 34L27 34L27 35L25 35L25 34L23 34L23 33L22 33L22 32L26 32L26 31L25 31L25 28L26 28L26 27L24 27L24 26L29 26L29 28L33 28L33 27L34 27L34 26L35 26L35 25L34 25L34 24L36 24L36 23L34 23L34 24L33 24L33 25L32 25L32 24L31 24L31 23L32 23L32 22L33 22L33 21L34 21L34 22L35 22L35 21L34 21L34 20L36 20L36 19L35 19L35 17L36 17L36 14L35 14L35 15L34 15L34 13L30 13L30 10L29 10L29 11L28 11L28 13L24 13L24 14L21 14L21 13L22 13L22 12L24 12L24 11L25 11L25 12L26 12L26 10L28 10L28 9L29 9L29 8L28 8L28 6L27 6L27 8L26 8L26 10L25 10L25 9L24 9L24 10L23 10L23 11L22 11L22 12L20 12L20 10L18 10L18 11L17 11L17 10L16 10L16 9L17 9L17 8L18 8L18 9L22 9L22 8L21 8L21 7L22 7L22 6L23 6L23 7L24 7L24 5L21 5L21 7L20 7L20 5L19 5L19 7L18 7L18 4L17 4L17 3ZM20 3L20 4L22 4L22 3ZM16 4L16 5L15 5L15 6L16 6L16 7L17 7L17 4ZM8 5L8 7L9 7L9 5ZM27 8L27 9L28 9L28 8ZM31 8L31 9L32 9L32 8ZM6 10L6 11L7 11L7 10ZM14 10L14 12L13 12L13 11L12 11L12 13L13 13L13 14L12 14L12 15L13 15L13 14L14 14L14 16L13 16L13 17L9 17L9 18L8 18L8 17L7 17L7 16L6 16L6 15L5 15L5 14L4 14L4 15L5 15L5 16L6 16L6 17L5 17L5 19L7 19L7 18L8 18L8 20L9 20L9 21L8 21L8 23L7 23L7 24L8 24L8 23L9 23L9 21L10 21L10 18L12 18L12 19L11 19L11 20L12 20L12 19L17 19L17 18L18 18L18 20L15 20L15 21L14 21L14 20L13 20L13 21L11 21L11 22L10 22L10 24L11 24L11 22L13 22L13 23L14 23L14 24L13 24L13 25L10 25L10 26L13 26L13 25L16 25L16 26L14 26L14 28L15 28L15 29L14 29L14 31L15 31L15 32L17 32L17 30L20 30L20 32L22 32L22 31L23 31L23 30L24 30L24 29L23 29L23 26L24 26L24 25L23 25L23 22L24 22L24 21L23 21L23 20L25 20L25 21L27 21L27 20L28 20L28 19L29 19L29 18L30 18L30 21L33 21L33 20L34 20L34 19L33 19L33 20L31 20L31 19L32 19L32 18L30 18L30 17L33 17L33 18L34 18L34 17L35 17L35 16L34 16L34 15L33 15L33 14L32 14L32 16L31 16L31 14L30 14L30 13L28 13L28 14L26 14L26 15L27 15L27 16L24 16L24 15L25 15L25 14L24 14L24 15L23 15L23 16L22 16L22 15L21 15L21 14L20 14L20 12L19 12L19 11L18 11L18 12L17 12L17 11L16 11L16 10ZM36 10L36 11L37 11L37 10ZM14 12L14 14L16 14L16 13L17 13L17 15L16 15L16 16L14 16L14 17L13 17L13 18L14 18L14 17L15 17L15 18L16 18L16 17L17 17L17 16L18 16L18 17L19 17L19 16L18 16L18 15L20 15L20 14L19 14L19 12L18 12L18 13L17 13L17 12ZM29 14L29 16L27 16L27 18L26 18L26 17L24 17L24 18L23 18L23 19L24 19L24 18L26 18L26 19L25 19L25 20L27 20L27 18L28 18L28 17L30 17L30 14ZM20 16L20 17L22 17L22 16ZM33 16L33 17L34 17L34 16ZM6 17L6 18L7 18L7 17ZM1 18L1 19L2 19L2 18ZM19 18L19 20L18 20L18 21L17 21L17 24L16 24L16 25L17 25L17 24L18 24L18 25L19 25L19 23L22 23L22 22L23 22L23 21L22 21L22 20L21 20L21 21L22 21L22 22L18 22L18 21L20 21L20 19L21 19L21 18ZM6 20L6 21L7 21L7 20ZM13 21L13 22L14 22L14 21ZM15 21L15 22L16 22L16 21ZM28 21L28 22L27 22L27 23L26 23L26 24L25 24L25 25L27 25L27 23L28 23L28 24L29 24L29 25L31 25L31 24L30 24L30 22L29 22L29 21ZM20 24L20 25L22 25L22 26L21 26L21 27L20 27L20 26L16 26L16 27L15 27L15 28L20 28L20 29L21 29L21 30L23 30L23 29L22 29L22 28L21 28L21 27L22 27L22 26L23 26L23 25L22 25L22 24ZM30 26L30 27L31 27L31 26ZM27 27L27 28L28 28L28 27ZM11 29L11 30L12 30L12 31L11 31L11 32L13 32L13 33L14 33L14 32L13 32L13 30L12 30L12 29ZM15 29L15 30L16 30L16 29ZM26 29L26 30L27 30L27 32L28 32L28 30L27 30L27 29ZM29 29L29 32L32 32L32 29ZM33 29L33 30L34 30L34 29ZM30 30L30 31L31 31L31 30ZM34 31L34 32L33 32L33 33L34 33L34 32L35 32L35 31ZM9 34L9 36L11 36L11 35L12 35L12 34L11 34L11 35L10 35L10 34ZM29 34L29 35L30 35L30 36L32 36L32 35L33 35L33 34ZM20 35L20 36L21 36L21 35ZM0 0L0 7L7 7L7 0ZM1 1L1 6L6 6L6 1ZM2 2L2 5L5 5L5 2ZM30 0L30 7L37 7L37 0ZM31 1L31 6L36 6L36 1ZM32 2L32 5L35 5L35 2ZM0 30L0 37L7 37L7 30ZM1 31L1 36L6 36L6 31ZM2 32L2 35L5 35L5 32Z" fill="#000000"/></g></g></svg>
