<?xml version="1.0" encoding="UTF-8"?>
<svg xmlns="http://www.w3.org/2000/svg" version="1.1" width="200" height="200" viewBox="0 0 200 200"><rect x="0" y="0" width="200" height="200" fill="#ffffff"/><g transform="scale(6.897)"><g transform="translate(0,0)"><path fill-rule="evenodd" d="M9 0L9 1L8 1L8 2L9 2L9 3L8 3L8 4L10 4L10 2L9 2L9 1L10 1L10 0ZM11 0L11 1L12 1L12 3L13 3L13 4L11 4L11 5L10 5L10 7L11 7L11 5L12 5L12 7L13 7L13 5L14 5L14 8L13 8L13 9L11 9L11 8L6 8L6 9L7 9L7 10L5 10L5 8L0 8L0 9L4 9L4 10L3 10L3 14L1 14L1 15L0 15L0 16L1 16L1 17L0 17L0 21L1 21L1 18L2 18L2 20L3 20L3 21L5 21L5 19L4 19L4 18L3 18L3 17L4 17L4 16L6 16L6 17L5 17L5 18L6 18L6 19L7 19L7 18L6 18L6 17L9 17L9 19L10 19L10 20L12 20L12 19L10 19L10 16L11 16L11 14L12 14L12 15L14 15L14 16L12 16L12 17L11 17L11 18L12 18L12 17L16 17L16 18L13 18L13 19L15 19L15 20L13 20L13 21L11 21L11 22L9 22L9 20L6 20L6 21L8 21L8 23L11 23L11 22L13 22L13 23L12 23L12 24L13 24L13 25L11 25L11 24L8 24L8 29L10 29L10 28L11 28L11 27L10 27L10 28L9 28L9 26L13 26L13 27L16 27L16 28L17 28L17 29L18 29L18 28L22 28L22 27L23 27L23 26L24 26L24 27L26 27L26 26L24 26L24 25L28 25L28 26L27 26L27 28L24 28L24 29L27 29L27 28L28 28L28 26L29 26L29 25L28 25L28 24L29 24L29 23L28 23L28 24L25 24L25 23L27 23L27 22L29 22L29 20L28 20L28 19L27 19L27 16L28 16L28 15L27 15L27 12L28 12L28 11L27 11L27 12L25 12L25 9L26 9L26 8L25 8L25 9L24 9L24 8L23 8L23 9L22 9L22 8L20 8L20 9L18 9L18 8L19 8L19 6L18 6L18 8L17 8L17 6L16 6L16 5L20 5L20 3L21 3L21 0L18 0L18 1L17 1L17 0L16 0L16 1L14 1L14 3L13 3L13 1L12 1L12 0ZM16 1L16 2L17 2L17 3L14 3L14 5L16 5L16 4L17 4L17 3L18 3L18 4L19 4L19 3L18 3L18 2L17 2L17 1ZM19 1L19 2L20 2L20 1ZM8 5L8 7L9 7L9 5ZM15 6L15 7L16 7L16 6ZM20 6L20 7L21 7L21 6ZM14 8L14 9L13 9L13 10L11 10L11 9L10 9L10 11L11 11L11 12L10 12L10 13L11 13L11 12L12 12L12 13L13 13L13 14L14 14L14 13L15 13L15 14L16 14L16 15L17 15L17 16L19 16L19 17L20 17L20 18L18 18L18 19L17 19L17 20L15 20L15 21L13 21L13 22L14 22L14 23L13 23L13 24L16 24L16 25L13 25L13 26L16 26L16 25L17 25L17 24L18 24L18 25L19 25L19 26L17 26L17 28L18 28L18 27L20 27L20 23L19 23L19 24L18 24L18 23L17 23L17 24L16 24L16 23L15 23L15 22L18 22L18 21L19 21L19 20L21 20L21 19L22 19L22 18L21 18L21 17L20 17L20 16L21 16L21 14L22 14L22 17L23 17L23 18L24 18L24 19L25 19L25 21L26 21L26 20L27 20L27 19L25 19L25 18L24 18L24 17L26 17L26 16L27 16L27 15L26 15L26 13L25 13L25 12L24 12L24 9L23 9L23 12L22 12L22 13L20 13L20 12L21 12L21 11L22 11L22 10L21 10L21 9L20 9L20 10L18 10L18 11L16 11L16 12L15 12L15 11L13 11L13 10L14 10L14 9L15 9L15 10L16 10L16 9L15 9L15 8ZM27 8L27 9L28 9L28 10L29 10L29 9L28 9L28 8ZM8 9L8 10L9 10L9 9ZM4 11L4 12L5 12L5 13L4 13L4 14L5 14L5 15L6 15L6 16L10 16L10 14L8 14L8 13L6 13L6 12L8 12L8 11L6 11L6 12L5 12L5 11ZM12 11L12 12L13 12L13 13L14 13L14 12L13 12L13 11ZM0 12L0 13L2 13L2 12ZM17 12L17 13L16 13L16 14L17 14L17 15L18 15L18 14L20 14L20 13L18 13L18 12ZM23 12L23 13L22 13L22 14L23 14L23 13L24 13L24 14L25 14L25 13L24 13L24 12ZM17 13L17 14L18 14L18 13ZM28 13L28 14L29 14L29 13ZM6 14L6 15L8 15L8 14ZM1 15L1 16L2 16L2 17L3 17L3 16L4 16L4 15L3 15L3 16L2 16L2 15ZM23 15L23 16L24 16L24 15ZM28 17L28 18L29 18L29 17ZM17 20L17 21L18 21L18 20ZM21 21L21 24L24 24L24 21ZM22 22L22 23L23 23L23 22ZM22 25L22 26L21 26L21 27L22 27L22 26L23 26L23 25ZM12 28L12 29L15 29L15 28ZM0 0L0 7L7 7L7 0ZM1 1L1 6L6 6L6 1ZM2 2L2 5L5 5L5 2ZM22 0L22 7L29 7L29 0ZM23 1L23 6L28 6L28 1ZM24 2L24 5L27 5L27 2ZM0 22L0 29L7 29L7 22ZM1 23L1 28L6 28L6 23ZM2 24L2 27L5 27L5 24Z" fill="#000000"/></g></g></svg>
