<?xml version="1.0" encoding="UTF-8"?>
<svg xmlns="http://www.w3.org/2000/svg" version="1.1" width="200" height="200" viewBox="0 0 200 200"><rect x="0" y="0" width="200" height="200" fill="#ffffff"/><g transform="scale(5.405)"><g transform="translate(0,0)"><path fill-rule="evenodd" d="M9 0L9 1L8 1L8 2L9 2L9 3L8 3L8 4L10 4L10 7L11 7L11 4L12 4L12 5L13 5L13 6L12 6L12 9L13 9L13 8L14 8L14 9L15 9L15 10L17 10L17 9L18 9L18 10L20 10L20 11L21 11L21 12L23 12L23 11L21 11L21 10L24 10L24 9L23 9L23 5L24 5L24 4L26 4L26 5L25 5L25 6L24 6L24 7L25 7L25 6L26 6L26 7L27 7L27 8L25 8L25 9L29 9L29 10L26 10L26 12L25 12L25 11L24 11L24 12L25 12L25 15L28 15L28 16L29 16L29 14L30 14L30 13L34 13L34 15L33 15L33 14L32 14L32 15L30 15L30 17L29 17L29 18L26 18L26 19L28 19L28 20L24 20L24 19L25 19L25 17L27 17L27 16L23 16L23 14L24 14L24 13L23 13L23 14L21 14L21 13L19 13L19 12L17 12L17 11L16 11L16 13L12 13L12 11L13 11L13 10L11 10L11 11L10 11L10 9L11 9L11 8L6 8L6 9L5 9L5 8L0 8L0 10L1 10L1 11L0 11L0 13L1 13L1 14L0 14L0 21L1 21L1 22L0 22L0 29L1 29L1 25L2 25L2 26L3 26L3 27L4 27L4 26L3 26L3 25L2 25L2 24L1 24L1 23L4 23L4 22L5 22L5 23L7 23L7 22L6 22L6 21L9 21L9 22L10 22L10 23L11 23L11 22L10 22L10 21L12 21L12 22L13 22L13 23L12 23L12 25L13 25L13 24L14 24L14 25L15 25L15 24L16 24L16 25L18 25L18 26L15 26L15 27L14 27L14 28L15 28L15 29L12 29L12 27L13 27L13 26L11 26L11 24L6 24L6 25L5 25L5 24L4 24L4 25L5 25L5 26L6 26L6 27L7 27L7 28L6 28L6 29L8 29L8 31L9 31L9 29L8 29L8 25L10 25L10 27L11 27L11 28L10 28L10 31L11 31L11 29L12 29L12 30L13 30L13 31L12 31L12 33L13 33L13 32L14 32L14 33L19 33L19 34L21 34L21 35L19 35L19 36L16 36L16 34L15 34L15 35L14 35L14 36L15 36L15 37L20 37L20 36L22 36L22 37L23 37L23 36L25 36L25 37L27 37L27 36L29 36L29 37L30 37L30 35L28 35L28 34L29 34L29 33L30 33L30 34L34 34L34 33L35 33L35 35L36 35L36 36L34 36L34 35L32 35L32 36L31 36L31 37L32 37L32 36L34 36L34 37L37 37L37 30L35 30L35 28L34 28L34 27L36 27L36 28L37 28L37 26L36 26L36 25L37 25L37 22L36 22L36 21L37 21L37 18L36 18L36 17L37 17L37 14L36 14L36 13L35 13L35 12L34 12L34 11L35 11L35 9L36 9L36 8L35 8L35 9L34 9L34 8L33 8L33 9L34 9L34 11L33 11L33 12L32 12L32 10L31 10L31 12L30 12L30 13L29 13L29 10L30 10L30 8L28 8L28 7L29 7L29 6L28 6L28 5L27 5L27 3L29 3L29 0L28 0L28 1L27 1L27 0L26 0L26 2L27 2L27 3L24 3L24 2L23 2L23 1L24 1L24 0L21 0L21 1L20 1L20 0L19 0L19 1L20 1L20 3L19 3L19 2L18 2L18 1L17 1L17 0L15 0L15 1L17 1L17 2L16 2L16 4L12 4L12 2L13 2L13 1L11 1L11 2L10 2L10 0ZM14 2L14 3L15 3L15 2ZM17 2L17 3L18 3L18 2ZM22 2L22 3L20 3L20 5L19 5L19 4L16 4L16 5L18 5L18 6L17 6L17 7L16 7L16 6L15 6L15 7L14 7L14 6L13 6L13 7L14 7L14 8L15 8L15 7L16 7L16 9L17 9L17 8L18 8L18 9L19 9L19 8L20 8L20 9L22 9L22 8L20 8L20 5L21 5L21 4L22 4L22 5L23 5L23 4L22 4L22 3L23 3L23 2ZM10 3L10 4L11 4L11 3ZM8 5L8 7L9 7L9 5ZM26 5L26 6L27 6L27 7L28 7L28 6L27 6L27 5ZM18 6L18 7L19 7L19 6ZM21 6L21 7L22 7L22 6ZM31 8L31 9L32 9L32 8ZM3 9L3 10L2 10L2 11L1 11L1 13L2 13L2 14L3 14L3 15L1 15L1 16L3 16L3 20L5 20L5 21L6 21L6 20L8 20L8 19L9 19L9 21L10 21L10 20L11 20L11 19L10 19L10 18L9 18L9 17L11 17L11 18L13 18L13 19L12 19L12 21L16 21L16 24L18 24L18 25L22 25L22 24L21 24L21 23L22 23L22 22L23 22L23 23L24 23L24 24L26 24L26 26L25 26L25 25L24 25L24 26L19 26L19 29L17 29L17 28L18 28L18 27L15 27L15 28L16 28L16 29L15 29L15 30L16 30L16 29L17 29L17 32L18 32L18 30L19 30L19 31L20 31L20 32L19 32L19 33L20 33L20 32L21 32L21 34L22 34L22 35L25 35L25 36L26 36L26 35L27 35L27 33L24 33L24 34L23 34L23 33L22 33L22 32L21 32L21 31L20 31L20 30L19 30L19 29L20 29L20 27L22 27L22 28L21 28L21 30L23 30L23 32L24 32L24 30L27 30L27 31L25 31L25 32L28 32L28 30L27 30L27 29L28 29L28 28L27 28L27 29L24 29L24 30L23 30L23 28L24 28L24 27L25 27L25 28L26 28L26 26L28 26L28 27L29 27L29 28L30 28L30 26L31 26L31 28L32 28L32 27L33 27L33 25L34 25L34 26L35 26L35 25L34 25L34 24L36 24L36 23L35 23L35 22L33 22L33 21L34 21L34 20L36 20L36 19L35 19L35 17L36 17L36 14L35 14L35 15L34 15L34 16L33 16L33 17L32 17L32 16L31 16L31 17L30 17L30 18L29 18L29 20L28 20L28 21L27 21L27 22L25 22L25 21L24 21L24 22L23 22L23 21L22 21L22 20L23 20L23 19L24 19L24 18L23 18L23 17L22 17L22 16L21 16L21 14L19 14L19 13L16 13L16 14L19 14L19 15L16 15L16 17L17 17L17 18L15 18L15 17L14 17L14 16L15 16L15 15L14 15L14 16L13 16L13 17L12 17L12 15L13 15L13 14L12 14L12 13L11 13L11 12L10 12L10 11L8 11L8 9L6 9L6 10L7 10L7 11L5 11L5 12L7 12L7 13L4 13L4 14L3 14L3 11L4 11L4 10L5 10L5 9ZM36 10L36 11L37 11L37 10ZM14 11L14 12L15 12L15 11ZM8 12L8 13L10 13L10 14L9 14L9 15L8 15L8 14L6 14L6 15L5 15L5 14L4 14L4 15L3 15L3 16L5 16L5 17L4 17L4 18L5 18L5 19L7 19L7 18L5 18L5 17L9 17L9 15L11 15L11 13L10 13L10 12ZM26 13L26 14L29 14L29 13ZM6 15L6 16L7 16L7 15ZM19 15L19 16L17 16L17 17L19 17L19 18L18 18L18 20L17 20L17 19L16 19L16 20L17 20L17 21L19 21L19 22L17 22L17 23L19 23L19 22L20 22L20 23L21 23L21 21L19 21L19 20L22 20L22 19L23 19L23 18L22 18L22 17L21 17L21 16L20 16L20 15ZM19 16L19 17L20 17L20 16ZM34 16L34 17L33 17L33 18L34 18L34 17L35 17L35 16ZM1 17L1 18L2 18L2 17ZM19 18L19 19L20 19L20 18ZM21 18L21 19L22 19L22 18ZM30 18L30 21L28 21L28 22L27 22L27 23L26 23L26 24L27 24L27 23L28 23L28 24L29 24L29 22L30 22L30 25L28 25L28 26L30 26L30 25L31 25L31 24L32 24L32 25L33 25L33 24L34 24L34 23L33 23L33 22L32 22L32 23L31 23L31 22L30 22L30 21L33 21L33 20L34 20L34 19L33 19L33 20L31 20L31 19L32 19L32 18ZM14 19L14 20L15 20L15 19ZM1 20L1 21L2 21L2 22L3 22L3 21L2 21L2 20ZM14 23L14 24L15 24L15 23ZM6 25L6 26L7 26L7 25ZM29 29L29 32L32 32L32 29ZM33 29L33 30L34 30L34 29ZM30 30L30 31L31 31L31 30ZM14 31L14 32L16 32L16 31ZM34 31L34 32L33 32L33 33L34 33L34 32L35 32L35 33L36 33L36 32L35 32L35 31ZM8 32L8 37L10 37L10 36L11 36L11 37L12 37L12 35L13 35L13 34L11 34L11 32L10 32L10 34L9 34L9 32ZM10 34L10 35L11 35L11 34ZM17 34L17 35L18 35L18 34ZM0 0L0 7L7 7L7 0ZM1 1L1 6L6 6L6 1ZM2 2L2 5L5 5L5 2ZM30 0L30 7L37 7L37 0ZM31 1L31 6L36 6L36 1ZM32 2L32 5L35 5L35 2ZM0 30L0 37L7 37L7 30ZM1 31L1 36L6 36L6 31ZM2 32L2 35L5 35L5 32Z" fill="#000000"/></g></g></svg>
