<?xml version="1.0" encoding="utf-8"?>
<!-- Generator: Adobe Illustrator 24.3.0, SVG Export Plug-In . SVG Version: 6.00 Build 0)  -->
<svg version="1.1" id="Layer_1" xmlns="http://www.w3.org/2000/svg" xmlns:xlink="http://www.w3.org/1999/xlink" x="0px" y="0px"
	 viewBox="0 0 1800 395.26" style="enable-background:new 0 0 1800 395.26;" xml:space="preserve">
<style type="text/css">
	.st0{fill:#FFFFFF;}
	.st1{fill:#315B46;}
	.st2{fill:#EAE7C3;}
</style>
<g>
	<g>
		<path class="st1" d="M213.88,12.44c114.35,0,190.06,75.19,190.06,187.98c0,112.78-75.71,187.97-190.06,187.97
			c-113.83,0-190.06-75.19-190.06-187.97C23.81,87.64,100.05,12.44,213.88,12.44z M213.88,273.17c43.44,0,72.65-26.12,72.65-74.89
			c0-44.94-24.14-9.28-72.65-74.9c-28.11-38.03-72.65,32.76-72.65,74.9C141.23,250.56,170.44,273.17,213.88,273.17z"/>
		<path class="st1" d="M1192.3,388.39c-113.9,0-189.31-74.89-189.31-187.23c0-112.33,75.41-187.23,189.31-187.23
			c113.38,0,189.31,74.89,189.31,187.23C1381.61,313.5,1305.68,388.39,1192.3,388.39z"/>
		<path class="st1" d="M592.47,304.85c37.07,0,70.49-22.98,70.49-69.97V13.94h88.76v221.99c0,99.73-63.18,152.47-157.69,152.47
			c-97.12,0-160.3-52.74-160.3-152.47V13.94h88.76v220.94C522.5,281.87,554.88,304.85,592.47,304.85z"/>
		<path class="st1" d="M974.81,13.94v88.77H939.3c-32.9,0-55.87,17.76-55.87,52.21v233.48h-88.76V166.93
			c0-101.82,56.91-152.99,144.64-152.99H974.81z"/>
		<path class="st1" d="M1506.66,388.39h-88.76V166.4c0-99.73,63.18-152.47,160.3-152.47c94.51,0,157.69,52.74,157.69,152.47v221.99
			h-88.76V167.45c0-46.99-33.42-69.97-70.49-69.97c-37.6,0-69.97,22.98-69.97,69.97V388.39z"/>
	</g>
	<g>
		<path d="M1720.41,47.27h-7.51V20.38h-10.12v-6.37h27.79v6.37h-10.17V47.27z"/>
		<path d="M1771.91,47.27h-6.75V24.8l-9.45,19.1h-4.85l-9.5-19.1v22.47h-6.75V14.02h8.36l10.36,20.43l10.26-20.43h8.31V47.27z"/>
	</g>
</g>
</svg>
